<?xml version="1.0" encoding="UTF-8" standalone="no"?>
<!DOCTYPE svg PUBLIC "-//W3C//DTD SVG 1.1//EN"
 "http://www.w3.org/Graphics/SVG/1.1/DTD/svg11.dtd">
<!-- Generated by graphviz version 2.47.0 (20210316.0004)
 -->
<!-- Title: dependencies Pages: 1 -->
<svg width="1838pt" height="284pt"
 viewBox="0.00 0.00 1838.00 284.00" xmlns="http://www.w3.org/2000/svg" xmlns:xlink="http://www.w3.org/1999/xlink">
<g id="graph0" class="graph" transform="scale(1 1) rotate(0) translate(4 280)">
<title>dependencies</title>
<polygon fill="white" stroke="transparent" points="-4,4 -4,-280 1834,-280 1834,4 -4,4"/>
<text text-anchor="start" x="894.01" y="-42.4" font-family="Times-12" font-weight="bold" font-size="14.00">Legend</text>
<polygon fill="#ffffb3" stroke="transparent" points="681,-10 681,-30 701,-30 701,-10 681,-10"/>
<text text-anchor="start" x="704.63" y="-15.4" font-family="Times-12" font-size="14.00"> &#160;Declarations</text>
<polygon fill="#8dd3c7" stroke="transparent" points="794,-10 794,-30 814,-30 814,-10 794,-10"/>
<text text-anchor="start" x="817.73" y="-15.4" font-family="Times-12" font-size="14.00"> &#160;Module</text>
<polygon fill="#80b1d3" stroke="transparent" points="880,-10 880,-30 900,-30 900,-10 880,-10"/>
<text text-anchor="start" x="903.78" y="-15.4" font-family="Times-12" font-size="14.00"> &#160;Bootstrap</text>
<polygon fill="#fdb462" stroke="transparent" points="977,-10 977,-30 997,-30 997,-10 977,-10"/>
<text text-anchor="start" x="1000.67" y="-15.4" font-family="Times-12" font-size="14.00"> &#160;Providers</text>
<polygon fill="#fb8072" stroke="transparent" points="1073,-10 1073,-30 1093,-30 1093,-10 1073,-10"/>
<text text-anchor="start" x="1096.73" y="-15.4" font-family="Times-12" font-size="14.00"> &#160;Exports</text>
<g id="clust1" class="cluster">
<title>cluster_AppModule</title>
<polygon fill="none" stroke="black" stroke-dasharray="1,5" points="8,-70 8,-268 1822,-268 1822,-70 8,-70"/>
</g>
<g id="clust15" class="cluster">
<title>cluster_AppModule_providers</title>
<polygon fill="none" stroke="black" points="1546,-78 1546,-130 1814,-130 1814,-78 1546,-78"/>
</g>
<g id="clust12" class="cluster">
<title>cluster_AppModule_imports</title>
<polygon fill="none" stroke="black" points="1394,-78 1394,-130 1538,-130 1538,-78 1394,-78"/>
</g>
<g id="clust14" class="cluster">
<title>cluster_AppModule_bootstrap</title>
<polygon fill="none" stroke="black" points="731,-208 731,-260 855,-260 855,-208 731,-208"/>
</g>
<g id="clust2" class="cluster">
<title>cluster_AppModule_declarations</title>
<polygon fill="none" stroke="black" points="16,-78 16,-130 1386,-130 1386,-78 16,-78"/>
</g>
<!-- AppComponent -->
<g id="node1" class="node">
<title>AppComponent</title>
<polygon fill="#ffffb3" stroke="black" points="1377.94,-122 1272.06,-122 1272.06,-86 1377.94,-86 1377.94,-122"/>
<text text-anchor="middle" x="1325" y="-99.8" font-family="Times,serif" font-size="14.00">AppComponent</text>
</g>
<!-- AppModule -->
<g id="node10" class="node">
<title>AppModule</title>
<polygon fill="#8dd3c7" stroke="black" points="834.66,-187 831.66,-191 810.66,-191 807.66,-187 751.34,-187 751.34,-151 834.66,-151 834.66,-187"/>
<text text-anchor="middle" x="793" y="-164.8" font-family="Times,serif" font-size="14.00">AppModule</text>
</g>
<!-- AppComponent&#45;&gt;AppModule -->
<g id="edge1" class="edge">
<title>AppComponent&#45;&gt;AppModule</title>
<path fill="none" stroke="black" d="M1325,-122.11C1325,-141.34 1325,-169 1325,-169 1325,-169 844.75,-169 844.75,-169"/>
<polygon fill="black" stroke="black" points="844.75,-165.5 834.75,-169 844.75,-172.5 844.75,-165.5"/>
</g>
<!-- ChangeBgColorOnClickDirective -->
<g id="node2" class="node">
<title>ChangeBgColorOnClickDirective</title>
<polygon fill="#ffffb3" stroke="black" points="1254.01,-122 1047.99,-122 1047.99,-86 1254.01,-86 1254.01,-122"/>
<text text-anchor="middle" x="1151" y="-99.8" font-family="Times,serif" font-size="14.00">ChangeBgColorOnClickDirective</text>
</g>
<!-- ChangeBgColorOnClickDirective&#45;&gt;AppModule -->
<g id="edge2" class="edge">
<title>ChangeBgColorOnClickDirective&#45;&gt;AppModule</title>
<path fill="none" stroke="black" d="M1151,-122.02C1151,-139.37 1151,-163 1151,-163 1151,-163 844.77,-163 844.77,-163"/>
<polygon fill="black" stroke="black" points="844.77,-159.5 834.77,-163 844.77,-166.5 844.77,-159.5"/>
</g>
<!-- DefaultLayoutComponent -->
<g id="node3" class="node">
<title>DefaultLayoutComponent</title>
<polygon fill="#ffffb3" stroke="black" points="1029.47,-122 866.53,-122 866.53,-86 1029.47,-86 1029.47,-122"/>
<text text-anchor="middle" x="948" y="-99.8" font-family="Times,serif" font-size="14.00">DefaultLayoutComponent</text>
</g>
<!-- DefaultLayoutComponent&#45;&gt;AppModule -->
<g id="edge3" class="edge">
<title>DefaultLayoutComponent&#45;&gt;AppModule</title>
<path fill="none" stroke="black" d="M948,-122.24C948,-137.57 948,-157 948,-157 948,-157 844.95,-157 844.95,-157"/>
<polygon fill="black" stroke="black" points="844.95,-153.5 834.95,-157 844.95,-160.5 844.95,-153.5"/>
</g>
<!-- ErrorComponent -->
<g id="node4" class="node">
<title>ErrorComponent</title>
<polygon fill="#ffffb3" stroke="black" points="848.37,-122 737.63,-122 737.63,-86 848.37,-86 848.37,-122"/>
<text text-anchor="middle" x="793" y="-99.8" font-family="Times,serif" font-size="14.00">ErrorComponent</text>
</g>
<!-- ErrorComponent&#45;&gt;AppModule -->
<g id="edge4" class="edge">
<title>ErrorComponent&#45;&gt;AppModule</title>
<path fill="none" stroke="black" d="M793,-122.11C793,-122.11 793,-140.99 793,-140.99"/>
<polygon fill="black" stroke="black" points="789.5,-140.99 793,-150.99 796.5,-140.99 789.5,-140.99"/>
</g>
<!-- HomeComponent -->
<g id="node5" class="node">
<title>HomeComponent</title>
<polygon fill="#ffffb3" stroke="black" points="719.55,-122 604.45,-122 604.45,-86 719.55,-86 719.55,-122"/>
<text text-anchor="middle" x="662" y="-99.8" font-family="Times,serif" font-size="14.00">HomeComponent</text>
</g>
<!-- HomeComponent&#45;&gt;AppModule -->
<g id="edge5" class="edge">
<title>HomeComponent&#45;&gt;AppModule</title>
<path fill="none" stroke="black" d="M662,-122.24C662,-137.57 662,-157 662,-157 662,-157 741.19,-157 741.19,-157"/>
<polygon fill="black" stroke="black" points="741.19,-160.5 751.19,-157 741.19,-153.5 741.19,-160.5"/>
</g>
<!-- LoaderComponent -->
<g id="node6" class="node">
<title>LoaderComponent</title>
<polygon fill="#ffffb3" stroke="black" points="586.47,-122 465.53,-122 465.53,-86 586.47,-86 586.47,-122"/>
<text text-anchor="middle" x="526" y="-99.8" font-family="Times,serif" font-size="14.00">LoaderComponent</text>
</g>
<!-- LoaderComponent&#45;&gt;AppModule -->
<g id="edge6" class="edge">
<title>LoaderComponent&#45;&gt;AppModule</title>
<path fill="none" stroke="black" d="M526,-122.02C526,-139.37 526,-163 526,-163 526,-163 741.28,-163 741.28,-163"/>
<polygon fill="black" stroke="black" points="741.28,-166.5 751.28,-163 741.28,-159.5 741.28,-166.5"/>
</g>
<!-- MainLayoutComponent -->
<g id="node7" class="node">
<title>MainLayoutComponent</title>
<polygon fill="#ffffb3" stroke="black" points="447.04,-122 296.96,-122 296.96,-86 447.04,-86 447.04,-122"/>
<text text-anchor="middle" x="372" y="-99.8" font-family="Times,serif" font-size="14.00">MainLayoutComponent</text>
</g>
<!-- MainLayoutComponent&#45;&gt;AppModule -->
<g id="edge7" class="edge">
<title>MainLayoutComponent&#45;&gt;AppModule</title>
<path fill="none" stroke="black" d="M372,-122.11C372,-141.34 372,-169 372,-169 372,-169 741.09,-169 741.09,-169"/>
<polygon fill="black" stroke="black" points="741.09,-172.5 751.09,-169 741.09,-165.5 741.09,-172.5"/>
</g>
<!-- PulseEffectDirective -->
<g id="node8" class="node">
<title>PulseEffectDirective</title>
<polygon fill="#ffffb3" stroke="black" points="278.11,-122 145.89,-122 145.89,-86 278.11,-86 278.11,-122"/>
<text text-anchor="middle" x="212" y="-99.8" font-family="Times,serif" font-size="14.00">PulseEffectDirective</text>
</g>
<!-- PulseEffectDirective&#45;&gt;AppModule -->
<g id="edge8" class="edge">
<title>PulseEffectDirective&#45;&gt;AppModule</title>
<path fill="none" stroke="black" d="M212,-122.28C212,-143.32 212,-175 212,-175 212,-175 741.22,-175 741.22,-175"/>
<polygon fill="black" stroke="black" points="741.22,-178.5 751.22,-175 741.22,-171.5 741.22,-178.5"/>
</g>
<!-- UpperCasePipe -->
<g id="node9" class="node">
<title>UpperCasePipe</title>
<polygon fill="#ffffb3" stroke="black" points="127.58,-122 24.42,-122 24.42,-86 127.58,-86 127.58,-122"/>
<text text-anchor="middle" x="76" y="-99.8" font-family="Times,serif" font-size="14.00">UpperCasePipe</text>
</g>
<!-- UpperCasePipe&#45;&gt;AppModule -->
<g id="edge9" class="edge">
<title>UpperCasePipe&#45;&gt;AppModule</title>
<path fill="none" stroke="black" d="M76,-122.25C76,-145.02 76,-181 76,-181 76,-181 741.09,-181 741.09,-181"/>
<polygon fill="black" stroke="black" points="741.09,-184.5 751.09,-181 741.09,-177.5 741.09,-184.5"/>
</g>
<!-- AppComponent  -->
<g id="node12" class="node">
<title>AppComponent </title>
<polygon fill="#80b1d3" stroke="black" points="847.44,-252 738.56,-252 738.56,-216 847.44,-216 847.44,-252"/>
<text text-anchor="middle" x="793" y="-229.8" font-family="Times,serif" font-size="14.00">AppComponent </text>
</g>
<!-- AppModule&#45;&gt;AppComponent  -->
<g id="edge11" class="edge">
<title>AppModule&#45;&gt;AppComponent </title>
<path fill="none" stroke="black" stroke-dasharray="1,5" d="M793,-187.11C793,-187.11 793,-205.99 793,-205.99"/>
<polygon fill="black" stroke="black" points="789.5,-205.99 793,-215.99 796.5,-205.99 789.5,-205.99"/>
</g>
<!-- AppRoutingModule -->
<g id="node11" class="node">
<title>AppRoutingModule</title>
<polygon fill="#8dd3c7" stroke="black" points="1530.27,-122 1527.27,-126 1506.27,-126 1503.27,-122 1401.73,-122 1401.73,-86 1530.27,-86 1530.27,-122"/>
<text text-anchor="middle" x="1466" y="-99.8" font-family="Times,serif" font-size="14.00">AppRoutingModule</text>
</g>
<!-- AppRoutingModule&#45;&gt;AppModule -->
<g id="edge10" class="edge">
<title>AppRoutingModule&#45;&gt;AppModule</title>
<path fill="none" stroke="black" d="M1466,-122.28C1466,-143.32 1466,-175 1466,-175 1466,-175 844.84,-175 844.84,-175"/>
<polygon fill="black" stroke="black" points="844.84,-171.5 834.84,-175 844.84,-178.5 844.84,-171.5"/>
</g>
<!-- MyHttpInterceptorInterceptor -->
<g id="node13" class="node">
<title>MyHttpInterceptorInterceptor</title>
<ellipse fill="#fdb462" stroke="black" cx="1680" cy="-104" rx="126.16" ry="18"/>
<text text-anchor="middle" x="1680" y="-99.8" font-family="Times,serif" font-size="14.00">MyHttpInterceptorInterceptor</text>
</g>
<!-- MyHttpInterceptorInterceptor&#45;&gt;AppModule -->
<g id="edge12" class="edge">
<title>MyHttpInterceptorInterceptor&#45;&gt;AppModule</title>
<path fill="none" stroke="black" d="M1680,-122.25C1680,-145.02 1680,-181 1680,-181 1680,-181 844.89,-181 844.89,-181"/>
<polygon fill="black" stroke="black" points="844.89,-177.5 834.89,-181 844.89,-184.5 844.89,-177.5"/>
</g>
</g>
</svg>
