<?xml version="1.0" encoding="UTF-8" standalone="no"?>
<!DOCTYPE svg PUBLIC "-//W3C//DTD SVG 1.1//EN"
 "http://www.w3.org/Graphics/SVG/1.1/DTD/svg11.dtd">
<!-- Generated by graphviz version 2.47.0 (20210316.0004)
 -->
<!-- Title: dependencies Pages: 1 -->
<svg width="1687pt" height="284pt"
 viewBox="0.00 0.00 1687.00 284.00" xmlns="http://www.w3.org/2000/svg" xmlns:xlink="http://www.w3.org/1999/xlink">
<g id="graph0" class="graph" transform="scale(1 1) rotate(0) translate(4 280)">
<title>dependencies</title>
<polygon fill="white" stroke="transparent" points="-4,4 -4,-280 1683,-280 1683,4 -4,4"/>
<text text-anchor="start" x="818.51" y="-42.4" font-family="Times-12" font-weight="bold" font-size="14.00">Legend</text>
<polygon fill="#ffffb3" stroke="transparent" points="605.5,-10 605.5,-30 625.5,-30 625.5,-10 605.5,-10"/>
<text text-anchor="start" x="629.13" y="-15.4" font-family="Times-12" font-size="14.00"> &#160;Declarations</text>
<polygon fill="#8dd3c7" stroke="transparent" points="718.5,-10 718.5,-30 738.5,-30 738.5,-10 718.5,-10"/>
<text text-anchor="start" x="742.23" y="-15.4" font-family="Times-12" font-size="14.00"> &#160;Module</text>
<polygon fill="#80b1d3" stroke="transparent" points="804.5,-10 804.5,-30 824.5,-30 824.5,-10 804.5,-10"/>
<text text-anchor="start" x="828.28" y="-15.4" font-family="Times-12" font-size="14.00"> &#160;Bootstrap</text>
<polygon fill="#fdb462" stroke="transparent" points="901.5,-10 901.5,-30 921.5,-30 921.5,-10 901.5,-10"/>
<text text-anchor="start" x="925.17" y="-15.4" font-family="Times-12" font-size="14.00"> &#160;Providers</text>
<polygon fill="#fb8072" stroke="transparent" points="997.5,-10 997.5,-30 1017.5,-30 1017.5,-10 997.5,-10"/>
<text text-anchor="start" x="1021.23" y="-15.4" font-family="Times-12" font-size="14.00"> &#160;Exports</text>
<g id="clust1" class="cluster">
<title>cluster_AppModule</title>
<polygon fill="none" stroke="black" stroke-dasharray="1,5" points="8,-70 8,-268 1671,-268 1671,-70 8,-70"/>
</g>
<g id="clust14" class="cluster">
<title>cluster_AppModule_providers</title>
<polygon fill="none" stroke="black" points="1395,-78 1395,-130 1663,-130 1663,-78 1395,-78"/>
</g>
<g id="clust13" class="cluster">
<title>cluster_AppModule_bootstrap</title>
<polygon fill="none" stroke="black" points="666,-208 666,-260 790,-260 790,-208 666,-208"/>
</g>
<g id="clust2" class="cluster">
<title>cluster_AppModule_declarations</title>
<polygon fill="none" stroke="black" points="168,-78 168,-130 1387,-130 1387,-78 168,-78"/>
</g>
<g id="clust11" class="cluster">
<title>cluster_AppModule_imports</title>
<polygon fill="none" stroke="black" points="16,-78 16,-130 160,-130 160,-78 16,-78"/>
</g>
<!-- AppComponent -->
<g id="node1" class="node">
<title>AppComponent</title>
<polygon fill="#ffffb3" stroke="black" points="1378.94,-122 1273.06,-122 1273.06,-86 1378.94,-86 1378.94,-122"/>
<text text-anchor="middle" x="1326" y="-99.8" font-family="Times,serif" font-size="14.00">AppComponent</text>
</g>
<!-- AppModule -->
<g id="node9" class="node">
<title>AppModule</title>
<polygon fill="#8dd3c7" stroke="black" points="769.66,-187 766.66,-191 745.66,-191 742.66,-187 686.34,-187 686.34,-151 769.66,-151 769.66,-187"/>
<text text-anchor="middle" x="728" y="-164.8" font-family="Times,serif" font-size="14.00">AppModule</text>
</g>
<!-- AppComponent&#45;&gt;AppModule -->
<g id="edge1" class="edge">
<title>AppComponent&#45;&gt;AppModule</title>
<path fill="none" stroke="black" d="M1326,-122.13C1326,-142.57 1326,-173 1326,-173 1326,-173 780.05,-173 780.05,-173"/>
<polygon fill="black" stroke="black" points="780.05,-169.5 770.05,-173 780.05,-176.5 780.05,-169.5"/>
</g>
<!-- ChangeBgColorOnClickDirective -->
<g id="node2" class="node">
<title>ChangeBgColorOnClickDirective</title>
<polygon fill="#ffffb3" stroke="black" points="1255.01,-122 1048.99,-122 1048.99,-86 1255.01,-86 1255.01,-122"/>
<text text-anchor="middle" x="1152" y="-99.8" font-family="Times,serif" font-size="14.00">ChangeBgColorOnClickDirective</text>
</g>
<!-- ChangeBgColorOnClickDirective&#45;&gt;AppModule -->
<g id="edge2" class="edge">
<title>ChangeBgColorOnClickDirective&#45;&gt;AppModule</title>
<path fill="none" stroke="black" d="M1152,-122.27C1152,-140.56 1152,-166 1152,-166 1152,-166 779.82,-166 779.82,-166"/>
<polygon fill="black" stroke="black" points="779.82,-162.5 769.82,-166 779.82,-169.5 779.82,-162.5"/>
</g>
<!-- DefaultLayoutComponent -->
<g id="node3" class="node">
<title>DefaultLayoutComponent</title>
<polygon fill="#ffffb3" stroke="black" points="1030.47,-122 867.53,-122 867.53,-86 1030.47,-86 1030.47,-122"/>
<text text-anchor="middle" x="949" y="-99.8" font-family="Times,serif" font-size="14.00">DefaultLayoutComponent</text>
</g>
<!-- DefaultLayoutComponent&#45;&gt;AppModule -->
<g id="edge3" class="edge">
<title>DefaultLayoutComponent&#45;&gt;AppModule</title>
<path fill="none" stroke="black" d="M949,-122.01C949,-138.05 949,-159 949,-159 949,-159 779.83,-159 779.83,-159"/>
<polygon fill="black" stroke="black" points="779.83,-155.5 769.83,-159 779.83,-162.5 779.83,-155.5"/>
</g>
<!-- ErrorComponent -->
<g id="node4" class="node">
<title>ErrorComponent</title>
<polygon fill="#ffffb3" stroke="black" points="849.37,-122 738.63,-122 738.63,-86 849.37,-86 849.37,-122"/>
<text text-anchor="middle" x="794" y="-99.8" font-family="Times,serif" font-size="14.00">ErrorComponent</text>
</g>
<!-- ErrorComponent&#45;&gt;AppModule -->
<g id="edge4" class="edge">
<title>ErrorComponent&#45;&gt;AppModule</title>
<path fill="none" stroke="black" d="M754.2,-122.11C754.2,-122.11 754.2,-140.99 754.2,-140.99"/>
<polygon fill="black" stroke="black" points="750.7,-140.99 754.2,-150.99 757.7,-140.99 750.7,-140.99"/>
</g>
<!-- HomeComponent -->
<g id="node5" class="node">
<title>HomeComponent</title>
<polygon fill="#ffffb3" stroke="black" points="720.55,-122 605.45,-122 605.45,-86 720.55,-86 720.55,-122"/>
<text text-anchor="middle" x="663" y="-99.8" font-family="Times,serif" font-size="14.00">HomeComponent</text>
</g>
<!-- HomeComponent&#45;&gt;AppModule -->
<g id="edge5" class="edge">
<title>HomeComponent&#45;&gt;AppModule</title>
<path fill="none" stroke="black" d="M703.47,-122.11C703.47,-122.11 703.47,-140.99 703.47,-140.99"/>
<polygon fill="black" stroke="black" points="699.97,-140.99 703.47,-150.99 706.97,-140.99 699.97,-140.99"/>
</g>
<!-- LoaderComponent -->
<g id="node6" class="node">
<title>LoaderComponent</title>
<polygon fill="#ffffb3" stroke="black" points="587.47,-122 466.53,-122 466.53,-86 587.47,-86 587.47,-122"/>
<text text-anchor="middle" x="527" y="-99.8" font-family="Times,serif" font-size="14.00">LoaderComponent</text>
</g>
<!-- LoaderComponent&#45;&gt;AppModule -->
<g id="edge6" class="edge">
<title>LoaderComponent&#45;&gt;AppModule</title>
<path fill="none" stroke="black" d="M527,-122.01C527,-138.05 527,-159 527,-159 527,-159 675.86,-159 675.86,-159"/>
<polygon fill="black" stroke="black" points="675.86,-162.5 685.86,-159 675.86,-155.5 675.86,-162.5"/>
</g>
<!-- MainLayoutComponent -->
<g id="node7" class="node">
<title>MainLayoutComponent</title>
<polygon fill="#ffffb3" stroke="black" points="448.04,-122 297.96,-122 297.96,-86 448.04,-86 448.04,-122"/>
<text text-anchor="middle" x="373" y="-99.8" font-family="Times,serif" font-size="14.00">MainLayoutComponent</text>
</g>
<!-- MainLayoutComponent&#45;&gt;AppModule -->
<g id="edge7" class="edge">
<title>MainLayoutComponent&#45;&gt;AppModule</title>
<path fill="none" stroke="black" d="M373,-122.27C373,-140.56 373,-166 373,-166 373,-166 676.23,-166 676.23,-166"/>
<polygon fill="black" stroke="black" points="676.23,-169.5 686.23,-166 676.23,-162.5 676.23,-169.5"/>
</g>
<!-- UpperCasePipe -->
<g id="node8" class="node">
<title>UpperCasePipe</title>
<polygon fill="#ffffb3" stroke="black" points="279.58,-122 176.42,-122 176.42,-86 279.58,-86 279.58,-122"/>
<text text-anchor="middle" x="228" y="-99.8" font-family="Times,serif" font-size="14.00">UpperCasePipe</text>
</g>
<!-- UpperCasePipe&#45;&gt;AppModule -->
<g id="edge8" class="edge">
<title>UpperCasePipe&#45;&gt;AppModule</title>
<path fill="none" stroke="black" d="M228,-122.13C228,-142.57 228,-173 228,-173 228,-173 676.23,-173 676.23,-173"/>
<polygon fill="black" stroke="black" points="676.23,-176.5 686.23,-173 676.23,-169.5 676.23,-176.5"/>
</g>
<!-- AppComponent  -->
<g id="node11" class="node">
<title>AppComponent </title>
<polygon fill="#80b1d3" stroke="black" points="782.44,-252 673.56,-252 673.56,-216 782.44,-216 782.44,-252"/>
<text text-anchor="middle" x="728" y="-229.8" font-family="Times,serif" font-size="14.00">AppComponent </text>
</g>
<!-- AppModule&#45;&gt;AppComponent  -->
<g id="edge10" class="edge">
<title>AppModule&#45;&gt;AppComponent </title>
<path fill="none" stroke="black" stroke-dasharray="1,5" d="M728,-187.11C728,-187.11 728,-205.99 728,-205.99"/>
<polygon fill="black" stroke="black" points="724.5,-205.99 728,-215.99 731.5,-205.99 724.5,-205.99"/>
</g>
<!-- AppRoutingModule -->
<g id="node10" class="node">
<title>AppRoutingModule</title>
<polygon fill="#8dd3c7" stroke="black" points="152.27,-122 149.27,-126 128.27,-126 125.27,-122 23.73,-122 23.73,-86 152.27,-86 152.27,-122"/>
<text text-anchor="middle" x="88" y="-99.8" font-family="Times,serif" font-size="14.00">AppRoutingModule</text>
</g>
<!-- AppRoutingModule&#45;&gt;AppModule -->
<g id="edge9" class="edge">
<title>AppRoutingModule&#45;&gt;AppModule</title>
<path fill="none" stroke="black" d="M88,-122.01C88,-144.49 88,-180 88,-180 88,-180 676.01,-180 676.01,-180"/>
<polygon fill="black" stroke="black" points="676.01,-183.5 686.01,-180 676.01,-176.5 676.01,-183.5"/>
</g>
<!-- MyHttpInterceptorInterceptor -->
<g id="node12" class="node">
<title>MyHttpInterceptorInterceptor</title>
<ellipse fill="#fdb462" stroke="black" cx="1529" cy="-104" rx="126.16" ry="18"/>
<text text-anchor="middle" x="1529" y="-99.8" font-family="Times,serif" font-size="14.00">MyHttpInterceptorInterceptor</text>
</g>
<!-- MyHttpInterceptorInterceptor&#45;&gt;AppModule -->
<g id="edge11" class="edge">
<title>MyHttpInterceptorInterceptor&#45;&gt;AppModule</title>
<path fill="none" stroke="black" d="M1529,-122.01C1529,-144.49 1529,-180 1529,-180 1529,-180 779.66,-180 779.66,-180"/>
<polygon fill="black" stroke="black" points="779.66,-176.5 769.66,-180 779.66,-183.5 779.66,-176.5"/>
</g>
</g>
</svg>
