<?xml version="1.0" encoding="UTF-8" standalone="no"?>
<!DOCTYPE svg PUBLIC "-//W3C//DTD SVG 1.1//EN"
 "http://www.w3.org/Graphics/SVG/1.1/DTD/svg11.dtd">
<!-- Generated by graphviz version 2.47.0 (20210316.0004)
 -->
<!-- Title: dependencies Pages: 1 -->
<svg width="1838pt" height="284pt"
 viewBox="0.00 0.00 1838.00 284.00" xmlns="http://www.w3.org/2000/svg" xmlns:xlink="http://www.w3.org/1999/xlink">
<g id="graph0" class="graph" transform="scale(1 1) rotate(0) translate(4 280)">
<title>dependencies</title>
<polygon fill="white" stroke="transparent" points="-4,4 -4,-280 1834,-280 1834,4 -4,4"/>
<text text-anchor="start" x="894.01" y="-42.4" font-family="Times-12" font-weight="bold" font-size="14.00">Legend</text>
<polygon fill="#ffffb3" stroke="transparent" points="681,-10 681,-30 701,-30 701,-10 681,-10"/>
<text text-anchor="start" x="704.63" y="-15.4" font-family="Times-12" font-size="14.00"> &#160;Declarations</text>
<polygon fill="#8dd3c7" stroke="transparent" points="794,-10 794,-30 814,-30 814,-10 794,-10"/>
<text text-anchor="start" x="817.73" y="-15.4" font-family="Times-12" font-size="14.00"> &#160;Module</text>
<polygon fill="#80b1d3" stroke="transparent" points="880,-10 880,-30 900,-30 900,-10 880,-10"/>
<text text-anchor="start" x="903.78" y="-15.4" font-family="Times-12" font-size="14.00"> &#160;Bootstrap</text>
<polygon fill="#fdb462" stroke="transparent" points="977,-10 977,-30 997,-30 997,-10 977,-10"/>
<text text-anchor="start" x="1000.67" y="-15.4" font-family="Times-12" font-size="14.00"> &#160;Providers</text>
<polygon fill="#fb8072" stroke="transparent" points="1073,-10 1073,-30 1093,-30 1093,-10 1073,-10"/>
<text text-anchor="start" x="1096.73" y="-15.4" font-family="Times-12" font-size="14.00"> &#160;Exports</text>
<g id="clust1" class="cluster">
<title>cluster_AppModule</title>
<polygon fill="none" stroke="black" stroke-dasharray="1,5" points="8,-70 8,-268 1822,-268 1822,-70 8,-70"/>
</g>
<g id="clust2" class="cluster">
<title>cluster_AppModule_declarations</title>
<polygon fill="none" stroke="black" points="444,-78 444,-130 1814,-130 1814,-78 444,-78"/>
</g>
<g id="clust12" class="cluster">
<title>cluster_AppModule_imports</title>
<polygon fill="none" stroke="black" points="292,-78 292,-130 436,-130 436,-78 292,-78"/>
</g>
<g id="clust14" class="cluster">
<title>cluster_AppModule_bootstrap</title>
<polygon fill="none" stroke="black" points="892,-208 892,-260 1016,-260 1016,-208 892,-208"/>
</g>
<g id="clust15" class="cluster">
<title>cluster_AppModule_providers</title>
<polygon fill="none" stroke="black" points="16,-78 16,-130 284,-130 284,-78 16,-78"/>
</g>
<!-- AppComponent -->
<g id="node1" class="node">
<title>AppComponent</title>
<polygon fill="#ffffb3" stroke="black" points="1805.94,-122 1700.06,-122 1700.06,-86 1805.94,-86 1805.94,-122"/>
<text text-anchor="middle" x="1753" y="-99.8" font-family="Times,serif" font-size="14.00">AppComponent</text>
</g>
<!-- AppModule -->
<g id="node10" class="node">
<title>AppModule</title>
<polygon fill="#8dd3c7" stroke="black" points="995.66,-187 992.66,-191 971.66,-191 968.66,-187 912.34,-187 912.34,-151 995.66,-151 995.66,-187"/>
<text text-anchor="middle" x="954" y="-164.8" font-family="Times,serif" font-size="14.00">AppModule</text>
</g>
<!-- AppComponent&#45;&gt;AppModule -->
<g id="edge1" class="edge">
<title>AppComponent&#45;&gt;AppModule</title>
<path fill="none" stroke="black" d="M1753,-122.25C1753,-145.02 1753,-181 1753,-181 1753,-181 1005.83,-181 1005.83,-181"/>
<polygon fill="black" stroke="black" points="1005.83,-177.5 995.83,-181 1005.83,-184.5 1005.83,-177.5"/>
</g>
<!-- ChangeBgColorOnClickDirective -->
<g id="node2" class="node">
<title>ChangeBgColorOnClickDirective</title>
<polygon fill="#ffffb3" stroke="black" points="1682.01,-122 1475.99,-122 1475.99,-86 1682.01,-86 1682.01,-122"/>
<text text-anchor="middle" x="1579" y="-99.8" font-family="Times,serif" font-size="14.00">ChangeBgColorOnClickDirective</text>
</g>
<!-- ChangeBgColorOnClickDirective&#45;&gt;AppModule -->
<g id="edge2" class="edge">
<title>ChangeBgColorOnClickDirective&#45;&gt;AppModule</title>
<path fill="none" stroke="black" d="M1579,-122.28C1579,-143.32 1579,-175 1579,-175 1579,-175 1005.98,-175 1005.98,-175"/>
<polygon fill="black" stroke="black" points="1005.98,-171.5 995.98,-175 1005.98,-178.5 1005.98,-171.5"/>
</g>
<!-- DefaultLayoutComponent -->
<g id="node3" class="node">
<title>DefaultLayoutComponent</title>
<polygon fill="#ffffb3" stroke="black" points="1457.47,-122 1294.53,-122 1294.53,-86 1457.47,-86 1457.47,-122"/>
<text text-anchor="middle" x="1376" y="-99.8" font-family="Times,serif" font-size="14.00">DefaultLayoutComponent</text>
</g>
<!-- DefaultLayoutComponent&#45;&gt;AppModule -->
<g id="edge3" class="edge">
<title>DefaultLayoutComponent&#45;&gt;AppModule</title>
<path fill="none" stroke="black" d="M1376,-122.11C1376,-141.34 1376,-169 1376,-169 1376,-169 1006.01,-169 1006.01,-169"/>
<polygon fill="black" stroke="black" points="1006.01,-165.5 996.01,-169 1006.01,-172.5 1006.01,-165.5"/>
</g>
<!-- ErrorComponent -->
<g id="node4" class="node">
<title>ErrorComponent</title>
<polygon fill="#ffffb3" stroke="black" points="1276.37,-122 1165.63,-122 1165.63,-86 1276.37,-86 1276.37,-122"/>
<text text-anchor="middle" x="1221" y="-99.8" font-family="Times,serif" font-size="14.00">ErrorComponent</text>
</g>
<!-- ErrorComponent&#45;&gt;AppModule -->
<g id="edge4" class="edge">
<title>ErrorComponent&#45;&gt;AppModule</title>
<path fill="none" stroke="black" d="M1221,-122.02C1221,-139.37 1221,-163 1221,-163 1221,-163 1005.72,-163 1005.72,-163"/>
<polygon fill="black" stroke="black" points="1005.72,-159.5 995.72,-163 1005.72,-166.5 1005.72,-159.5"/>
</g>
<!-- HomeComponent -->
<g id="node5" class="node">
<title>HomeComponent</title>
<polygon fill="#ffffb3" stroke="black" points="1147.55,-122 1032.45,-122 1032.45,-86 1147.55,-86 1147.55,-122"/>
<text text-anchor="middle" x="1090" y="-99.8" font-family="Times,serif" font-size="14.00">HomeComponent</text>
</g>
<!-- HomeComponent&#45;&gt;AppModule -->
<g id="edge5" class="edge">
<title>HomeComponent&#45;&gt;AppModule</title>
<path fill="none" stroke="black" d="M1090,-122.24C1090,-137.57 1090,-157 1090,-157 1090,-157 1005.91,-157 1005.91,-157"/>
<polygon fill="black" stroke="black" points="1005.91,-153.5 995.91,-157 1005.91,-160.5 1005.91,-153.5"/>
</g>
<!-- LoaderComponent -->
<g id="node6" class="node">
<title>LoaderComponent</title>
<polygon fill="#ffffb3" stroke="black" points="1014.47,-122 893.53,-122 893.53,-86 1014.47,-86 1014.47,-122"/>
<text text-anchor="middle" x="954" y="-99.8" font-family="Times,serif" font-size="14.00">LoaderComponent</text>
</g>
<!-- LoaderComponent&#45;&gt;AppModule -->
<g id="edge6" class="edge">
<title>LoaderComponent&#45;&gt;AppModule</title>
<path fill="none" stroke="black" d="M954,-122.11C954,-122.11 954,-140.99 954,-140.99"/>
<polygon fill="black" stroke="black" points="950.5,-140.99 954,-150.99 957.5,-140.99 950.5,-140.99"/>
</g>
<!-- MainLayoutComponent -->
<g id="node7" class="node">
<title>MainLayoutComponent</title>
<polygon fill="#ffffb3" stroke="black" points="875.04,-122 724.96,-122 724.96,-86 875.04,-86 875.04,-122"/>
<text text-anchor="middle" x="800" y="-99.8" font-family="Times,serif" font-size="14.00">MainLayoutComponent</text>
</g>
<!-- MainLayoutComponent&#45;&gt;AppModule -->
<g id="edge7" class="edge">
<title>MainLayoutComponent&#45;&gt;AppModule</title>
<path fill="none" stroke="black" d="M800,-122.24C800,-137.57 800,-157 800,-157 800,-157 902.33,-157 902.33,-157"/>
<polygon fill="black" stroke="black" points="902.33,-160.5 912.33,-157 902.33,-153.5 902.33,-160.5"/>
</g>
<!-- PulseEffectDirective -->
<g id="node8" class="node">
<title>PulseEffectDirective</title>
<polygon fill="#ffffb3" stroke="black" points="706.11,-122 573.89,-122 573.89,-86 706.11,-86 706.11,-122"/>
<text text-anchor="middle" x="640" y="-99.8" font-family="Times,serif" font-size="14.00">PulseEffectDirective</text>
</g>
<!-- PulseEffectDirective&#45;&gt;AppModule -->
<g id="edge8" class="edge">
<title>PulseEffectDirective&#45;&gt;AppModule</title>
<path fill="none" stroke="black" d="M640,-122.02C640,-139.37 640,-163 640,-163 640,-163 902.3,-163 902.3,-163"/>
<polygon fill="black" stroke="black" points="902.3,-166.5 912.3,-163 902.3,-159.5 902.3,-166.5"/>
</g>
<!-- UpperCasePipe -->
<g id="node9" class="node">
<title>UpperCasePipe</title>
<polygon fill="#ffffb3" stroke="black" points="555.58,-122 452.42,-122 452.42,-86 555.58,-86 555.58,-122"/>
<text text-anchor="middle" x="504" y="-99.8" font-family="Times,serif" font-size="14.00">UpperCasePipe</text>
</g>
<!-- UpperCasePipe&#45;&gt;AppModule -->
<g id="edge9" class="edge">
<title>UpperCasePipe&#45;&gt;AppModule</title>
<path fill="none" stroke="black" d="M504,-122.11C504,-141.34 504,-169 504,-169 504,-169 902.07,-169 902.07,-169"/>
<polygon fill="black" stroke="black" points="902.07,-172.5 912.07,-169 902.07,-165.5 902.07,-172.5"/>
</g>
<!-- AppComponent  -->
<g id="node12" class="node">
<title>AppComponent </title>
<polygon fill="#80b1d3" stroke="black" points="1008.44,-252 899.56,-252 899.56,-216 1008.44,-216 1008.44,-252"/>
<text text-anchor="middle" x="954" y="-229.8" font-family="Times,serif" font-size="14.00">AppComponent </text>
</g>
<!-- AppModule&#45;&gt;AppComponent  -->
<g id="edge11" class="edge">
<title>AppModule&#45;&gt;AppComponent </title>
<path fill="none" stroke="black" stroke-dasharray="1,5" d="M954,-187.11C954,-187.11 954,-205.99 954,-205.99"/>
<polygon fill="black" stroke="black" points="950.5,-205.99 954,-215.99 957.5,-205.99 950.5,-205.99"/>
</g>
<!-- AppRoutingModule -->
<g id="node11" class="node">
<title>AppRoutingModule</title>
<polygon fill="#8dd3c7" stroke="black" points="428.27,-122 425.27,-126 404.27,-126 401.27,-122 299.73,-122 299.73,-86 428.27,-86 428.27,-122"/>
<text text-anchor="middle" x="364" y="-99.8" font-family="Times,serif" font-size="14.00">AppRoutingModule</text>
</g>
<!-- AppRoutingModule&#45;&gt;AppModule -->
<g id="edge10" class="edge">
<title>AppRoutingModule&#45;&gt;AppModule</title>
<path fill="none" stroke="black" d="M364,-122.28C364,-143.32 364,-175 364,-175 364,-175 902.04,-175 902.04,-175"/>
<polygon fill="black" stroke="black" points="902.04,-178.5 912.04,-175 902.04,-171.5 902.04,-178.5"/>
</g>
<!-- MyHttpInterceptorInterceptor -->
<g id="node13" class="node">
<title>MyHttpInterceptorInterceptor</title>
<ellipse fill="#fdb462" stroke="black" cx="150" cy="-104" rx="126.16" ry="18"/>
<text text-anchor="middle" x="150" y="-99.8" font-family="Times,serif" font-size="14.00">MyHttpInterceptorInterceptor</text>
</g>
<!-- MyHttpInterceptorInterceptor&#45;&gt;AppModule -->
<g id="edge12" class="edge">
<title>MyHttpInterceptorInterceptor&#45;&gt;AppModule</title>
<path fill="none" stroke="black" d="M150,-122.25C150,-145.02 150,-181 150,-181 150,-181 902.19,-181 902.19,-181"/>
<polygon fill="black" stroke="black" points="902.19,-184.5 912.19,-181 902.19,-177.5 902.19,-184.5"/>
</g>
</g>
</svg>
