<?xml version="1.0" encoding="UTF-8" standalone="no"?>
<!DOCTYPE svg PUBLIC "-//W3C//DTD SVG 1.1//EN"
 "http://www.w3.org/Graphics/SVG/1.1/DTD/svg11.dtd">
<!-- Generated by graphviz version 2.47.0 (20210316.0004)
 -->
<!-- Title: dependencies Pages: 1 -->
<svg width="1687pt" height="284pt"
 viewBox="0.00 0.00 1687.00 284.00" xmlns="http://www.w3.org/2000/svg" xmlns:xlink="http://www.w3.org/1999/xlink">
<g id="graph0" class="graph" transform="scale(1 1) rotate(0) translate(4 280)">
<title>dependencies</title>
<polygon fill="white" stroke="transparent" points="-4,4 -4,-280 1683,-280 1683,4 -4,4"/>
<text text-anchor="start" x="818.51" y="-42.4" font-family="Times-12" font-weight="bold" font-size="14.00">Legend</text>
<polygon fill="#ffffb3" stroke="transparent" points="605.5,-10 605.5,-30 625.5,-30 625.5,-10 605.5,-10"/>
<text text-anchor="start" x="629.13" y="-15.4" font-family="Times-12" font-size="14.00"> &#160;Declarations</text>
<polygon fill="#8dd3c7" stroke="transparent" points="718.5,-10 718.5,-30 738.5,-30 738.5,-10 718.5,-10"/>
<text text-anchor="start" x="742.23" y="-15.4" font-family="Times-12" font-size="14.00"> &#160;Module</text>
<polygon fill="#80b1d3" stroke="transparent" points="804.5,-10 804.5,-30 824.5,-30 824.5,-10 804.5,-10"/>
<text text-anchor="start" x="828.28" y="-15.4" font-family="Times-12" font-size="14.00"> &#160;Bootstrap</text>
<polygon fill="#fdb462" stroke="transparent" points="901.5,-10 901.5,-30 921.5,-30 921.5,-10 901.5,-10"/>
<text text-anchor="start" x="925.17" y="-15.4" font-family="Times-12" font-size="14.00"> &#160;Providers</text>
<polygon fill="#fb8072" stroke="transparent" points="997.5,-10 997.5,-30 1017.5,-30 1017.5,-10 997.5,-10"/>
<text text-anchor="start" x="1021.23" y="-15.4" font-family="Times-12" font-size="14.00"> &#160;Exports</text>
<g id="clust1" class="cluster">
<title>cluster_AppModule</title>
<polygon fill="none" stroke="black" stroke-dasharray="1,5" points="8,-70 8,-268 1671,-268 1671,-70 8,-70"/>
</g>
<g id="clust2" class="cluster">
<title>cluster_AppModule_declarations</title>
<polygon fill="none" stroke="black" points="444,-78 444,-130 1663,-130 1663,-78 444,-78"/>
</g>
<g id="clust11" class="cluster">
<title>cluster_AppModule_imports</title>
<polygon fill="none" stroke="black" points="292,-78 292,-130 436,-130 436,-78 292,-78"/>
</g>
<g id="clust13" class="cluster">
<title>cluster_AppModule_bootstrap</title>
<polygon fill="none" stroke="black" points="809,-208 809,-260 933,-260 933,-208 809,-208"/>
</g>
<g id="clust14" class="cluster">
<title>cluster_AppModule_providers</title>
<polygon fill="none" stroke="black" points="16,-78 16,-130 284,-130 284,-78 16,-78"/>
</g>
<!-- AppComponent -->
<g id="node1" class="node">
<title>AppComponent</title>
<polygon fill="#ffffb3" stroke="black" points="1654.94,-122 1549.06,-122 1549.06,-86 1654.94,-86 1654.94,-122"/>
<text text-anchor="middle" x="1602" y="-99.8" font-family="Times,serif" font-size="14.00">AppComponent</text>
</g>
<!-- AppModule -->
<g id="node9" class="node">
<title>AppModule</title>
<polygon fill="#8dd3c7" stroke="black" points="912.66,-187 909.66,-191 888.66,-191 885.66,-187 829.34,-187 829.34,-151 912.66,-151 912.66,-187"/>
<text text-anchor="middle" x="871" y="-164.8" font-family="Times,serif" font-size="14.00">AppModule</text>
</g>
<!-- AppComponent&#45;&gt;AppModule -->
<g id="edge1" class="edge">
<title>AppComponent&#45;&gt;AppModule</title>
<path fill="none" stroke="black" d="M1602,-122.01C1602,-144.49 1602,-180 1602,-180 1602,-180 922.66,-180 922.66,-180"/>
<polygon fill="black" stroke="black" points="922.66,-176.5 912.66,-180 922.66,-183.5 922.66,-176.5"/>
</g>
<!-- ChangeBgColorOnClickDirective -->
<g id="node2" class="node">
<title>ChangeBgColorOnClickDirective</title>
<polygon fill="#ffffb3" stroke="black" points="1531.01,-122 1324.99,-122 1324.99,-86 1531.01,-86 1531.01,-122"/>
<text text-anchor="middle" x="1428" y="-99.8" font-family="Times,serif" font-size="14.00">ChangeBgColorOnClickDirective</text>
</g>
<!-- ChangeBgColorOnClickDirective&#45;&gt;AppModule -->
<g id="edge2" class="edge">
<title>ChangeBgColorOnClickDirective&#45;&gt;AppModule</title>
<path fill="none" stroke="black" d="M1428,-122.13C1428,-142.57 1428,-173 1428,-173 1428,-173 922.87,-173 922.87,-173"/>
<polygon fill="black" stroke="black" points="922.87,-169.5 912.87,-173 922.87,-176.5 922.87,-169.5"/>
</g>
<!-- DefaultLayoutComponent -->
<g id="node3" class="node">
<title>DefaultLayoutComponent</title>
<polygon fill="#ffffb3" stroke="black" points="1306.47,-122 1143.53,-122 1143.53,-86 1306.47,-86 1306.47,-122"/>
<text text-anchor="middle" x="1225" y="-99.8" font-family="Times,serif" font-size="14.00">DefaultLayoutComponent</text>
</g>
<!-- DefaultLayoutComponent&#45;&gt;AppModule -->
<g id="edge3" class="edge">
<title>DefaultLayoutComponent&#45;&gt;AppModule</title>
<path fill="none" stroke="black" d="M1225,-122.27C1225,-140.56 1225,-166 1225,-166 1225,-166 923,-166 923,-166"/>
<polygon fill="black" stroke="black" points="923,-162.5 913,-166 923,-169.5 923,-162.5"/>
</g>
<!-- ErrorComponent -->
<g id="node4" class="node">
<title>ErrorComponent</title>
<polygon fill="#ffffb3" stroke="black" points="1125.37,-122 1014.63,-122 1014.63,-86 1125.37,-86 1125.37,-122"/>
<text text-anchor="middle" x="1070" y="-99.8" font-family="Times,serif" font-size="14.00">ErrorComponent</text>
</g>
<!-- ErrorComponent&#45;&gt;AppModule -->
<g id="edge4" class="edge">
<title>ErrorComponent&#45;&gt;AppModule</title>
<path fill="none" stroke="black" d="M1070,-122.01C1070,-138.05 1070,-159 1070,-159 1070,-159 922.72,-159 922.72,-159"/>
<polygon fill="black" stroke="black" points="922.72,-155.5 912.72,-159 922.72,-162.5 922.72,-155.5"/>
</g>
<!-- HomeComponent -->
<g id="node5" class="node">
<title>HomeComponent</title>
<polygon fill="#ffffb3" stroke="black" points="996.55,-122 881.45,-122 881.45,-86 996.55,-86 996.55,-122"/>
<text text-anchor="middle" x="939" y="-99.8" font-family="Times,serif" font-size="14.00">HomeComponent</text>
</g>
<!-- HomeComponent&#45;&gt;AppModule -->
<g id="edge5" class="edge">
<title>HomeComponent&#45;&gt;AppModule</title>
<path fill="none" stroke="black" d="M897.03,-122.11C897.03,-122.11 897.03,-140.99 897.03,-140.99"/>
<polygon fill="black" stroke="black" points="893.53,-140.99 897.03,-150.99 900.53,-140.99 893.53,-140.99"/>
</g>
<!-- LoaderComponent -->
<g id="node6" class="node">
<title>LoaderComponent</title>
<polygon fill="#ffffb3" stroke="black" points="863.47,-122 742.53,-122 742.53,-86 863.47,-86 863.47,-122"/>
<text text-anchor="middle" x="803" y="-99.8" font-family="Times,serif" font-size="14.00">LoaderComponent</text>
</g>
<!-- LoaderComponent&#45;&gt;AppModule -->
<g id="edge6" class="edge">
<title>LoaderComponent&#45;&gt;AppModule</title>
<path fill="none" stroke="black" d="M846.33,-122.11C846.33,-122.11 846.33,-140.99 846.33,-140.99"/>
<polygon fill="black" stroke="black" points="842.83,-140.99 846.33,-150.99 849.83,-140.99 842.83,-140.99"/>
</g>
<!-- MainLayoutComponent -->
<g id="node7" class="node">
<title>MainLayoutComponent</title>
<polygon fill="#ffffb3" stroke="black" points="724.04,-122 573.96,-122 573.96,-86 724.04,-86 724.04,-122"/>
<text text-anchor="middle" x="649" y="-99.8" font-family="Times,serif" font-size="14.00">MainLayoutComponent</text>
</g>
<!-- MainLayoutComponent&#45;&gt;AppModule -->
<g id="edge7" class="edge">
<title>MainLayoutComponent&#45;&gt;AppModule</title>
<path fill="none" stroke="black" d="M649,-122.01C649,-138.05 649,-159 649,-159 649,-159 819.24,-159 819.24,-159"/>
<polygon fill="black" stroke="black" points="819.24,-162.5 829.24,-159 819.24,-155.5 819.24,-162.5"/>
</g>
<!-- UpperCasePipe -->
<g id="node8" class="node">
<title>UpperCasePipe</title>
<polygon fill="#ffffb3" stroke="black" points="555.58,-122 452.42,-122 452.42,-86 555.58,-86 555.58,-122"/>
<text text-anchor="middle" x="504" y="-99.8" font-family="Times,serif" font-size="14.00">UpperCasePipe</text>
</g>
<!-- UpperCasePipe&#45;&gt;AppModule -->
<g id="edge8" class="edge">
<title>UpperCasePipe&#45;&gt;AppModule</title>
<path fill="none" stroke="black" d="M504,-122.27C504,-140.56 504,-166 504,-166 504,-166 819.26,-166 819.26,-166"/>
<polygon fill="black" stroke="black" points="819.26,-169.5 829.26,-166 819.26,-162.5 819.26,-169.5"/>
</g>
<!-- AppComponent  -->
<g id="node11" class="node">
<title>AppComponent </title>
<polygon fill="#80b1d3" stroke="black" points="925.44,-252 816.56,-252 816.56,-216 925.44,-216 925.44,-252"/>
<text text-anchor="middle" x="871" y="-229.8" font-family="Times,serif" font-size="14.00">AppComponent </text>
</g>
<!-- AppModule&#45;&gt;AppComponent  -->
<g id="edge10" class="edge">
<title>AppModule&#45;&gt;AppComponent </title>
<path fill="none" stroke="black" stroke-dasharray="1,5" d="M871,-187.11C871,-187.11 871,-205.99 871,-205.99"/>
<polygon fill="black" stroke="black" points="867.5,-205.99 871,-215.99 874.5,-205.99 867.5,-205.99"/>
</g>
<!-- AppRoutingModule -->
<g id="node10" class="node">
<title>AppRoutingModule</title>
<polygon fill="#8dd3c7" stroke="black" points="428.27,-122 425.27,-126 404.27,-126 401.27,-122 299.73,-122 299.73,-86 428.27,-86 428.27,-122"/>
<text text-anchor="middle" x="364" y="-99.8" font-family="Times,serif" font-size="14.00">AppRoutingModule</text>
</g>
<!-- AppRoutingModule&#45;&gt;AppModule -->
<g id="edge9" class="edge">
<title>AppRoutingModule&#45;&gt;AppModule</title>
<path fill="none" stroke="black" d="M364,-122.13C364,-142.57 364,-173 364,-173 364,-173 819.08,-173 819.08,-173"/>
<polygon fill="black" stroke="black" points="819.08,-176.5 829.08,-173 819.08,-169.5 819.08,-176.5"/>
</g>
<!-- MyHttpInterceptorInterceptor -->
<g id="node12" class="node">
<title>MyHttpInterceptorInterceptor</title>
<ellipse fill="#fdb462" stroke="black" cx="150" cy="-104" rx="126.16" ry="18"/>
<text text-anchor="middle" x="150" y="-99.8" font-family="Times,serif" font-size="14.00">MyHttpInterceptorInterceptor</text>
</g>
<!-- MyHttpInterceptorInterceptor&#45;&gt;AppModule -->
<g id="edge11" class="edge">
<title>MyHttpInterceptorInterceptor&#45;&gt;AppModule</title>
<path fill="none" stroke="black" d="M150,-122.01C150,-144.49 150,-180 150,-180 150,-180 819.12,-180 819.12,-180"/>
<polygon fill="black" stroke="black" points="819.12,-183.5 829.12,-180 819.12,-176.5 819.12,-183.5"/>
</g>
</g>
</svg>
